<?xml version="1.0" encoding="UTF-8" standalone="no"?>
<!-- Created with Inkscape (http://www.inkscape.org/) -->

<svg
   version="1.1"
   id="svg20053"
   width="1294.2349"
   height="277.05447"
   viewBox="0 0 1294.2348 277.05447"
   sodipodi:docname="F3RVAlogo_v1.eps"
   inkscape:export-filename="RVAlogo_v1.eps.png"
   inkscape:export-xdpi="96"
   inkscape:export-ydpi="96"
   inkscape:version="1.2.1 (9c6d41e, 2022-07-14)"
   inkscape:dataloss="true"
   xmlns:inkscape="http://www.inkscape.org/namespaces/inkscape"
   xmlns:sodipodi="http://sodipodi.sourceforge.net/DTD/sodipodi-0.dtd"
   xmlns="http://www.w3.org/2000/svg"
   xmlns:svg="http://www.w3.org/2000/svg">
  <defs
     id="defs20057" />
  <sodipodi:namedview
     id="namedview20055"
     pagecolor="#505050"
     bordercolor="#eeeeee"
     borderopacity="1"
     inkscape:showpageshadow="0"
     inkscape:pageopacity="0"
     inkscape:pagecheckerboard="0"
     inkscape:deskcolor="#505050"
     showgrid="false"
     showguides="false"
     inkscape:zoom="0.92172518"
     inkscape:cx="533.78166"
     inkscape:cy="271.23052"
     inkscape:window-width="1728"
     inkscape:window-height="992"
     inkscape:window-x="0"
     inkscape:window-y="38"
     inkscape:window-maximized="0"
     inkscape:current-layer="g20061" />
  <g
     id="g20061"
     inkscape:groupmode="layer"
     inkscape:label="Page 1"
     transform="matrix(1.3333333,0,0,-1.3333333,474.79839,275.87199)">
    <g
       id="g20063"
       transform="scale(0.1)"
       style="fill:#ffffff;fill-opacity:1">
      <path
         d="m 4501.77,763.121 h 503.3 L 4752.46,1251.56 Z M 5448.26,0 c -12.26,0 -25.76,4.30859 -40.65,13.1016 -14.87,8.707 -24.91,19.2382 -30.14,31.4882 L 5243.74,301.559 H 4260.33 L 4126.56,44.5898 C 4119.58,32.3398 4109.1,21.8086 4095.11,13.1016 4081.12,4.30859 4067.13,0 4053.14,0 h -553.93 c -35,0 -60.31,12.1797 -76.07,36.6992 -15.68,24.4727 -14.84,51.5625 2.62,81.3008 l 1088.91,1909.08 c 5.29,10.47 15.76,20.07 31.53,28.86 15.68,8.7 28.79,13.1 39.3,13.1 h 464.11 c 12.26,0 25.37,-4.4 39.4,-13.1 13.98,-8.79 24.46,-19.29 31.48,-31.51 L 6135.35,115.391 c 13.9,-29.7894 13.9,-56.4105 0,-80.0199 C 6121.32,11.7695 6096.89,0 6061.89,0 h -613.63"
         style="fill:#ffffff;fill-opacity:1;fill-rule:nonzero;stroke:none"
         id="path20065" />
      <path
         d="M 1113.28,1200.14 H 729.762 v 391.53 h 409.968 c 302.61,0 299.65,-174.82 299.65,-174.82 0,-229.61 -326.1,-216.71 -326.1,-216.71 z M 2353.4,116.93 1872.95,923.898 c 39.34,23.922 77.08,50.582 112.15,80.322 329.44,279.53 221.83,1059.29 -503.55,1060.38 l -55.49,1.11 H 1391 c -11.61,0.02 -23.21,0.02 -34.83,0.02 h -49.86 c -21.09,0 -42.17,0 -63.26,-0.02 -24.43,0 -48.87,0 -73.3,-0.02 h -165.13 c -29.53,0.02 -59.093,0.04 -88.636,0.04 -30.535,0.04 -61.058,0.04 -91.586,0.06 -31.152,0 -62.293,0 -93.46,-0.02 -31.235,0 -62.477,-0.04 -93.719,-0.06 -30.68,-0.02 -61.344,-0.08 -92.024,-0.1 h -88.293 c -27.531,0 -55.054,0.02 -82.57,0.08 -24.996,0.04 -49.98,0.1 -74.973,0.16 -21.91,0.04 -43.808,0.1 -65.722,0.1 -18.563,0 -37.11,0 -55.684,-0.1 -15.457,-0.08 -30.914,-0.22 -46.371,-0.42 -13.223,-0.16 -26.461,-0.42 -39.7031,-0.68 C 74,2064.38 61.2305,2061.5 45.1484,2054.05 29.918,2047.02 15.1719,2034.03 7.51172,2019 2.28906,2008.76 0,1996.51 0,1985.07 0,1984.97 0,80.6016 0,80.6016 0,80.6016 7.87109,0.898438 79.7461,0.898438 H 664.066 c 0,0 74.086,3.300782 74.086,74.062462 l 7.391,669.6991 c 0,0 188.102,-2.922 347.667,-2.801 72,-3.449 114.83,-69.937 114.83,-69.937 L 1542.58,50.3711 c 27.73,-51.019538 72.8,-48.83204 72.8,-48.83204 h 660.38 c 141.96,0 77.64,115.39094 77.64,115.39094"
         style="fill:#ffffff;fill-opacity:1;fill-rule:nonzero;stroke:none"
         id="path20067" />
      <path
         d="m 2190.33,1108.46 c 0,0 62.06,152.02 65.39,281.79 2.41,92.91 -5.81,165.29 -32.14,267.29 -13.29,51.59 -71.57,169.76 -131.98,236.8 -116.48,129.24 -217.95,164.73 -217.95,164.73 0,0 26.63,9.97 41.59,9.97 14.98,0 467.52,0 467.52,0 0,0 40.61,-1.01 69.38,-49.58 l 603.53,-989.85 581.41,979.69 c 34.8,58.39 77.21,58.08 77.21,58.08 h 558.53 c 138.08,0 86.56,-116.1 86.56,-116.1 L 3286.23,69.1992 C 3247.92,0.96875 3209.66,4.30859 3209.66,4.30859 h -356.03 c -38.3,0 -68.03,47.13281 -68.03,47.13281 l -594.2,1055.9486 -1.07,1.07"
         style="fill:#ffffff;fill-opacity:1;fill-rule:nonzero;stroke:none"
         id="path20069" />
    </g>
    <text
       xml:space="preserve"
       style="font-weight:bold;font-size:119.704px;font-family:Tahoma;-inkscape-font-specification:'Tahoma, Bold';text-align:center;letter-spacing:-15px;text-anchor:middle;fill:#ffffff;fill-opacity:1;stroke-width:1.49412"
       x="-172.64999"
       y="-4.8205557"
       id="text22302"
       transform="scale(1.0338344,-0.96727291)"><tspan
         id="tspan22300"
         style="font-style:italic;font-variant:normal;font-weight:900;font-stretch:normal;font-size:286.872px;font-family:'Avenir Next';-inkscape-font-specification:'Avenir Next, Heavy Italic';font-variant-ligatures:normal;font-variant-caps:normal;font-variant-numeric:normal;font-variant-east-asian:normal;stroke-width:1.49412"
         x="-180.14999"
         y="-4.8205557"
         sodipodi:role="line"
         dx="0">F3</tspan></text>
  </g>
</svg>
